<?xml version="1.0" standalone="no"?>
<!DOCTYPE svg PUBLIC "-//W3C//DTD SVG 20010904//EN"
 "http://www.w3.org/TR/2001/REC-SVG-20010904/DTD/svg10.dtd">
<svg version="1.0" xmlns="http://www.w3.org/2000/svg"
 width="577.000000pt" height="577.000000pt" viewBox="0 0 577.000000 577.000000"
 preserveAspectRatio="xMidYMid meet">
<metadata>
Created by potrace 1.14, written by Peter Selinger 2001-2017
</metadata>
<g transform="translate(0.000000,577.000000) scale(0.100000,-0.100000)"
fill="#000000" stroke="none">
<path d="M2977 4161 c-26 -9 -52 -22 -56 -30 -5 -7 -11 -12 -15 -12 -12 2 -66
-66 -81 -103 -19 -45 -19 -157 0 -220 34 -111 115 -205 222 -258 56 -28 77
-32 137 -32 82 0 120 16 159 68 15 19 34 41 43 50 18 19 35 72 26 81 -4 4 -8
23 -9 43 -8 187 -14 208 -80 289 -46 57 -113 102 -185 125 -70 21 -96 21 -161
-1z"/>
<path d="M1125 3960 c3 -5 12 -10 18 -10 7 0 21 -8 32 -16 13 -10 15 -15 5
-13 -8 1 -76 -1 -150 -5 -249 -14 -395 -88 -605 -308 -90 -93 -106 -117 -162
-229 -163 -327 -200 -638 -111 -919 44 -137 82 -205 157 -283 96 -100 158
-139 282 -176 151 -44 279 -40 464 15 145 43 130 51 133 -66 2 -87 7 -112 32
-171 62 -147 183 -242 346 -272 49 -9 483 -53 963 -98 l875 -80 540 3 541 3
71 33 c127 60 220 184 243 323 6 36 11 182 11 325 l0 259 100 1 c90 1 185 17
194 33 2 3 -51 6 -118 7 -109 1 -130 4 -211 33 -335 120 -610 404 -764 793
-24 61 -22 60 -72 15 -19 -17 -20 -17 -38 25 -24 55 -61 233 -61 295 0 26 -3
64 -6 84 -6 33 -11 37 -65 57 -69 25 -65 30 -74 -83 -22 -284 -196 -497 -448
-549 -90 -19 -137 -20 -226 -5 -176 29 -334 114 -488 262 -52 50 -66 58 -87
53 -43 -11 -107 84 -196 289 -7 17 -14 35 -15 40 -12 97 -20 127 -32 132 -8 3
-41 -2 -72 -11 -31 -10 -119 -37 -196 -61 -77 -23 -167 -51 -200 -60 -33 -10
-65 -21 -70 -26 -7 -5 -20 9 -34 37 -13 24 -28 44 -32 44 -14 0 -11 -9 21 -55
28 -40 44 -115 28 -130 -3 -3 -24 26 -48 65 -41 67 -60 91 -60 73 0 -15 38
-136 74 -238 27 -76 36 -115 35 -160 l-1 -60 -10 45 c-5 25 -15 70 -22 100
l-12 55 -8 -64 c-4 -35 -9 -62 -10 -60 -2 2 -6 38 -10 79 -8 99 -15 130 -32
130 -15 0 -17 37 -5 80 10 35 -7 96 -41 146 -15 23 -28 46 -28 51 0 5 -13 22
-30 38 -16 15 -27 31 -25 35 2 4 -10 24 -28 46 l-32 39 33 -23 c18 -13 46 -40
62 -60 41 -51 130 -126 130 -110 0 19 -150 160 -190 180 -138 65 -202 88 -248
88 -13 0 -20 -4 -17 -10z m228 -125 c21 -24 46 -66 57 -92 11 -26 25 -56 30
-65 6 -10 6 -18 2 -18 -5 0 -19 23 -33 52 -13 29 -42 75 -63 103 -22 27 -44
56 -49 63 -7 9 -6 11 5 7 8 -3 31 -26 51 -50z m-7 -102 c9 -24 15 -46 12 -48
-3 -3 -13 16 -23 42 -10 27 -31 67 -47 90 -40 60 -35 68 7 9 19 -27 42 -68 51
-93z m-391 60 c14 -21 25 -44 25 -51 0 -8 -27 -40 -60 -72 -71 -68 -105 -137
-115 -229 -4 -44 -25 -109 -69 -215 -35 -83 -91 -225 -125 -316 -86 -227 -126
-267 -226 -226 -88 37 -191 195 -187 287 5 114 100 352 200 500 81 121 208
227 375 312 113 58 148 60 182 10z m536 -195 c11 -40 24 -100 29 -133 5 -33
12 -75 16 -92 4 -20 2 -33 -4 -33 -6 0 -11 -51 -13 -129 -4 -141 -13 -165 -64
-169 -23 -2 -25 2 -25 34 l0 37 -42 -7 c-46 -8 -58 -18 -58 -56 0 -14 -6 -36
-13 -49 -13 -26 -83 -59 -97 -45 -7 8 -1 57 29 234 6 30 15 97 22 148 10 79
14 92 28 86 9 -3 24 -9 34 -11 20 -6 21 -8 18 -148 l-3 -111 41 4 c26 3 42 10
45 21 3 9 1 63 -3 121 -7 95 -6 107 10 125 23 24 38 12 56 -43 28 -86 -3 176
-34 283 -3 11 -2 17 2 13 3 -3 15 -39 26 -80z m-96 -133 l3 -120 -8 115 c-4
63 -13 133 -19 155 -15 58 -12 68 6 15 9 -27 16 -92 18 -165z m-240 78 c35
-46 37 -51 31 -103 -15 -131 -80 -416 -117 -515 -17 -46 -27 -59 -62 -77 -78
-39 -96 -57 -112 -111 -26 -87 -47 -246 -40 -296 14 -97 68 -171 135 -186 29
-6 29 -7 13 -32 -13 -19 -14 -26 -4 -32 18 -12 -66 -31 -134 -31 -79 0 -175
44 -208 97 -37 57 -50 107 -45 181 5 70 19 107 153 387 53 110 145 365 145
400 0 24 21 17 55 -19 l32 -34 12 56 c60 280 83 362 101 362 4 0 24 -21 45
-47z m865 38 c0 -12 -20 -25 -27 -18 -7 7 6 27 18 27 5 0 9 -4 9 -9z m-553
-33 c-3 -8 -6 -5 -6 6 -1 11 2 17 5 13 3 -3 4 -12 1 -19z m2323 1 c0 -6 -4 -7
-10 -4 -5 3 -10 11 -10 16 0 6 5 7 10 4 6 -3 10 -11 10 -16z m-2313 -56 c-3
-10 -5 -4 -5 12 0 17 2 24 5 18 2 -7 2 -21 0 -30z m344 -265 c2 -26 0 -51 -4
-54 -11 -11 -8 -26 3 -19 6 3 10 0 10 -8 0 -22 -20 -131 -28 -147 -13 -29 -17
115 -5 159 7 24 11 53 8 65 -2 12 -6 30 -9 41 -5 26 -9 75 -6 95 3 26 28 -82
31 -132z m494 133 c3 -5 1 -12 -5 -16 -5 -3 -10 1 -10 9 0 18 6 21 15 7z
m-618 -43 c-3 -8 -6 -5 -6 6 -1 11 2 17 5 13 3 -3 4 -12 1 -19z m-150 -75 c-3
-10 -5 -2 -5 17 0 19 2 27 5 18 2 -10 2 -26 0 -35z m163 -128 c-6 -30 -13 -55
-15 -55 -1 0 -3 46 -3 103 l0 102 15 -48 c12 -38 12 -58 3 -102z m580 55 c0
-13 -19 -22 -30 -15 -14 9 0 34 16 28 8 -3 14 -9 14 -13z m-633 -52 c-3 -8 -6
-5 -6 6 -1 11 2 17 5 13 3 -3 4 -12 1 -19z m968 -28 c3 -5 2 -10 -4 -10 -5 0
-13 5 -16 10 -3 6 -2 10 4 10 5 0 13 -4 16 -10z m-115 -39 c0 -6 -4 -13 -10
-16 -5 -3 -10 1 -10 9 0 9 5 16 10 16 6 0 10 -4 10 -9z m125 -31 c-3 -5 -10
-10 -16 -10 -5 0 -9 5 -9 10 0 6 7 10 16 10 8 0 12 -4 9 -10z m-1061 -192 c-4
-18 -6 -45 -6 -61 0 -15 -3 -25 -9 -22 -5 4 -6 -2 -2 -11 3 -10 2 -15 -3 -12
-5 3 -9 -7 -10 -24 -1 -16 -29 -83 -62 -149 -34 -65 -60 -119 -58 -119 10 0
97 168 136 263 24 59 47 107 52 107 34 0 -136 -355 -194 -407 -21 -18 -21 -18
-9 7 14 29 16 31 -65 -74 -25 -32 -54 -61 -65 -63 -10 -3 -19 -9 -19 -13 0 -4
-11 -15 -25 -24 -14 -9 8 27 57 92 44 59 90 128 102 153 12 25 35 67 52 95 17
27 53 104 80 171 27 68 50 123 52 123 2 0 0 -15 -4 -32z m-98 -119 c-19 -52
-44 -112 -55 -133 -12 -20 -19 -41 -16 -46 3 -4 -2 -11 -11 -14 -9 -4 -14 -13
-10 -21 3 -8 1 -14 -3 -12 -13 3 -82 -103 -74 -116 3 -6 1 -7 -5 -3 -11 7 -75
-77 -79 -103 -1 -8 -21 -33 -44 -55 -45 -43 -36 -23 15 32 31 33 27 45 -6 15
-32 -29 -19 2 40 93 92 140 166 274 213 381 23 54 47 104 53 112 25 33 15 -38
-18 -130z m278 24 c-4 -16 -13 -43 -20 -62 -8 -19 -12 -36 -10 -38 2 -2 14 21
27 51 29 70 35 67 10 -5 -34 -99 -81 -193 -146 -289 -62 -92 -135 -175 -135
-153 0 6 7 16 15 23 28 24 85 109 68 103 -14 -6 -14 -1 4 28 48 80 93 171 133
267 40 96 68 135 54 75z m-344 12 c0 -36 -119 -282 -151 -311 -39 -35 -30 -2
35 130 36 73 66 137 66 142 0 11 31 44 42 44 4 0 8 -2 8 -5z m175 -122 c-10
-40 -111 -216 -140 -243 -13 -13 -22 -27 -19 -31 3 -5 0 -9 -5 -9 -6 0 -11 -6
-11 -14 0 -7 -7 -19 -15 -26 -32 -26 -5 28 67 135 40 61 84 134 97 163 27 57
37 67 26 25z m70 -13 c-20 -56 -91 -195 -125 -245 -45 -66 -67 -76 -27 -12 21
32 65 112 99 178 34 65 63 119 64 119 2 0 -3 -18 -11 -40z m1725 -35 c0 -8 -4
-15 -10 -15 -5 0 -10 7 -10 15 0 8 5 15 10 15 6 0 10 -7 10 -15z m95 -24 c-10
-16 -25 -3 -25 22 0 20 1 20 16 5 9 -9 13 -21 9 -27z m-635 -21 c0 -5 -2 -10
-4 -10 -3 0 -8 5 -11 10 -3 6 -1 10 4 10 6 0 11 -4 11 -10z m-1129 -77 c-26
-52 -98 -149 -151 -203 -54 -56 -32 -24 35 52 28 31 68 87 89 123 42 71 58 87
27 28z m969 -43 c0 -5 -7 -10 -16 -10 -8 0 -12 5 -9 10 3 6 10 10 16 10 5 0 9
-4 9 -10z m-1551 -83 c-6 -13 -20 -29 -31 -36 -24 -15 -18 0 15 37 26 28 29
28 16 -1z m301 -61 c0 -2 -8 -10 -17 -17 -16 -13 -17 -12 -4 4 13 16 21 21 21
13z m-110 -39 c0 -2 -19 -21 -42 -42 l-43 -40 40 43 c36 39 45 47 45 39z m40
-42 c-24 -25 -46 -45 -49 -45 -3 0 15 20 39 45 24 25 46 45 49 45 3 0 -15 -20
-39 -45z m2778 16 c3 -8 -1 -12 -9 -9 -7 2 -15 10 -17 17 -3 8 1 12 9 9 7 -2
15 -10 17 -17z m-2658 -29 c0 -4 -10 -13 -22 -21 -23 -14 -23 -14 -4 8 20 22
26 25 26 13z m2520 -42 c0 -5 -2 -10 -4 -10 -3 0 -8 5 -11 10 -3 6 -1 10 4 10
6 0 11 -4 11 -10z m-80 -74 c0 -3 -4 -8 -10 -11 -5 -3 -10 -1 -10 4 0 6 5 11
10 11 6 0 10 -2 10 -4z m-3147 -23 c-7 -2 -19 -2 -25 0 -7 3 -2 5 12 5 14 0
19 -2 13 -5z m3177 -83 c0 -5 -4 -10 -10 -10 -5 0 -10 5 -10 10 0 6 5 10 10
10 6 0 10 -4 10 -10z m-865 -38 c-8 -8 -25 10 -19 20 4 6 9 5 15 -3 4 -7 6
-15 4 -17z m-505 -13 c0 -6 -4 -7 -10 -4 -5 3 -10 11 -10 16 0 6 5 7 10 4 6
-3 10 -11 10 -16z m250 11 c0 -5 -4 -10 -10 -10 -5 0 -10 5 -10 10 0 6 5 10
10 10 6 0 10 -4 10 -10z m-469 -43 c-1 -12 -15 -9 -19 4 -3 6 1 10 8 8 6 -3
11 -8 11 -12z m980 -70 c-13 -13 -26 -3 -16 12 3 6 11 8 17 5 6 -4 6 -10 -1
-17z m679 -191 c0 -3 -4 -8 -10 -11 -5 -3 -10 -1 -10 4 0 6 5 11 10 11 6 0 10
-2 10 -4z"/>
<path d="M1697 2581 c-4 -17 -3 -21 5 -13 5 5 8 16 6 23 -3 8 -7 3 -11 -10z"/>
<path d="M4866 3870 c-44 -14 -104 -59 -126 -96 -101 -162 -50 -433 110 -595
76 -76 130 -106 225 -122 68 -12 76 -16 52 -22 -16 -4 -53 -5 -84 -1 -160 19
-317 171 -379 369 -27 88 -33 78 -34 -60 -1 -125 57 -252 154 -341 63 -58 125
-84 214 -90 65 -4 75 -2 110 21 71 50 95 74 89 91 -4 9 -3 15 1 13 4 -1 33 23
64 54 75 72 102 133 93 210 -4 37 -3 59 4 63 12 8 15 55 5 80 -3 9 -15 16 -25
16 -23 0 -25 16 -2 28 15 9 14 14 -7 66 -53 130 -154 246 -256 293 -61 28
-159 39 -208 23z m324 -820 c-20 -13 -33 -13 -25 0 3 6 14 10 23 10 15 0 15
-2 2 -10z"/>
<path d="M3710 3680 c8 -5 20 -10 25 -10 6 0 3 5 -5 10 -8 5 -19 10 -25 10 -5
0 -3 -5 5 -10z"/>
<path d="M3758 3663 c7 -3 16 -2 19 1 4 3 -2 6 -13 5 -11 0 -14 -3 -6 -6z"/>
<path d="M2860 3611 c0 -6 5 -13 10 -16 6 -4 18 -25 27 -46 10 -25 36 -56 69
-84 95 -77 160 -82 230 -20 l39 34 -69 1 c-60 0 -81 5 -150 39 -45 22 -94 53
-110 70 -30 31 -46 39 -46 22z"/>
</g>
</svg>
